{"title":"Edge.Of.Tomorrow.2014.CamRip.DivX.Mp3.700MB.CD-R.By.RE-CODER","uid":10331445,"size":740889789,"categoryP":"video","categoryS":"movies","magnet":"?xt=urn:btih:07c3050607578e41f9298791438f7728c2397282&amp;dn=Edge.Of.Tomorrow.2014.CamRip.DivX.Mp3.700MB.CD-R.By.RE-CODER&amp;tr=udp%3A%2F%2Ftracker.openbittorrent.com%3A80&amp;tr=udp%3A%2F%2Fopen.demonii.com%3A1337&amp;tr=udp%3A%2F%2Ftracker.coppersurfer.tk%3A6969&amp;tr=udp%3A%2F%2Fexodus.desync.com%3A6969","seeders":1,"leechers":0,"uploader":"RE-CODER","files":9,"time":1402416637,"description":"By RE-CODER\n\nIts a CamRip\nYour comments will be appreciated.\nSeed for others too... :)\nSeed and Enjoy.\n\nMovie: Edge Of Tomorrow\nIMDB: http://www.imdb.com/title/tt1631867/\nYear: 2014\nQuality: Cam\nScreens: Yes Included\nSample: Yes Included\nSubs: None\n\nContainer: AVI\nVideo: DivX\nAudio: Mp3\nSize: 700MB CD-R\n\nRecommended Player's: VLC, MPC.\n\nGeneral\nComplete name                            : Edge Of Tomorrow.avi\nFormat                                   : AVI\nFormat/Info                              : Audio Video Interleave\nFile size                                : 700 MiB\nDuration                                 : 1h 45mn\nOverall bit rate                         : 927 Kbps\n\nVideo\nID                                       : 0\nFormat                                   : MPEG-4 Visual\nCodec ID                                 : DX50\nCodec ID/Hint                            : DivX 5\nDuration                                 : 1h 45mn\nBit rate                                 : 789 Kbps\nWidth                                    : 640 pixels\nHeight                                   : 272 pixels\nDisplay aspect ratio                     : 2.35:1\nFrame rate                               : 23.976 fps\nColor space                              : YUV\nChroma subsampling                       : 4:2:0\nBit depth                                : 8 bits\nScan type                                : Progressive\nCompression mode                         : Lossy\nBits/(Pixel*Frame)                       : 0.189\nStream size                              : 596 MiB (85%)\n\nAudio\nID                                       : 1\nFormat                                   : MPEG Audio\nFormat version                           : Version 1\nFormat profile                           : Layer 3\nMode                                     : Joint stereo\nMode extension                           : MS Stereo\nCodec ID                                 : 55\nCodec ID/Hint                            : MP3\nDuration                                 : 1h 45mn\nBit rate mode                            : Constant\nBit rate                                 : 128 Kbps\nChannel(s)                               : 2 channels\nSampling rate                            : 48.0 KHz\nCompression mode                         : Lossy\nStream size                              : 96.7 MiB (14%)","torrent":{"xt":"urn:btih:07c3050607578e41f9298791438f7728c2397282","amp;dn":"Edge.Of.Tomorrow.2014.CamRip.DivX.Mp3.700MB.CD-R.By.RE-CODER","amp;tr":["udp%3A%2F%2Ftracker.openbittorrent.com%3A80","udp%3A%2F%2Fopen.demonii.com%3A1337","udp%3A%2F%2Ftracker.coppersurfer.tk%3A6969","udp%3A%2F%2Fexodus.desync.com%3A6969"],"infoHash":"07c3050607578e41f9298791438f7728c2397282","infoHashBuffer":{"type":"Buffer","data":[7,195,5,6,7,87,142,65,249,41,135,145,67,143,119,40,194,57,114,130]},"announce":[],"urlList":[]}}